<?xml version="1.0" encoding="iso-8859-1"?>
<!-- Generator: Adobe Illustrator 16.0.0, SVG Export Plug-In . SVG Version: 6.00 Build 0)  -->
<!DOCTYPE svg PUBLIC "-//W3C//DTD SVG 1.1//EN" "http://www.w3.org/Graphics/SVG/1.1/DTD/svg11.dtd">
<svg version="1.1" id="Capa_1" xmlns="http://www.w3.org/2000/svg" xmlns:xlink="http://www.w3.org/1999/xlink" x="0px" y="0px"
	 width="890.982px" height="890.982px" viewBox="0 0 890.982 890.982" style="enable-background:new 0 0 890.982 890.982;"
	 xml:space="preserve">
<g>
	<g>
		<path d="M540.27,671.672c-0.492,0.493-11.928,12.421-33.991,15.211c-21.053,2.627-46.274-7.934-50.077-28.287
			c-0.056-0.272-0.385-0.383-0.452-0.656c21.242-8.59,42.28-33.704,42.28-44.483c0-26.865-20.396-32.117-55.594-32.117
			c-44.757,0-55.7,6.285-55.7,32.117c0,12.688,21.366,36.003,42.65,43.991c-0.145,0.438-0.629,0.657-0.711,1.088
			c-3.967,20.962-28.924,31.03-49.463,28.349c-21.94-2.79-33.321-14.718-33.704-15.102c-5.171-5.744-14.069-6.244-19.78-1.039
			c-5.745,5.144-6.245,14.007-1.067,19.752c0.739,0.82,18.303,20.025,50.968,24.186c3.386,0.438,6.812,0.655,10.287,0.655
			c21.387,0,42.842-8.974,56.656-25.06c14.121,16.031,35.966,25.06,57.277,25.06c3.406,0,6.703-0.219,9.999-0.655
			c32.774-4.159,50.379-23.364,51.104-24.186c5.129-5.689,4.704-14.39-1-19.588C554.428,665.708,545.469,666.092,540.27,671.672z
			 M442.435,647.051c-18.33,0-41.447-27.035-41.692-33.596c0-13.568,0-18.109,41.692-18.109c41.587,0,41.587,8.37,41.615,17.781
			C482.736,620.076,459.346,647.051,442.435,647.051z"/>
		<path d="M552.746,620.896c4.049,0,7.331-3.398,7.331-7.332c0-4.104-3.282-7.388-7.331-7.388c-3.994,0-7.332,3.283-7.332,7.388
			C545.414,617.498,548.752,620.896,552.746,620.896z"/>
		<path d="M534.306,656.461c3.98,0,7.277-3.337,7.277-7.331c0-4.049-3.297-7.332-7.277-7.332c-3.994,0-7.332,3.283-7.332,7.332
			C526.974,653.124,530.312,656.461,534.306,656.461z"/>
		<path d="M567.518,649.13c0,3.994,3.283,7.331,7.332,7.331c3.98,0,7.277-3.337,7.277-7.331c0-4.049-3.297-7.332-7.277-7.332
			C570.802,641.798,567.518,645.081,567.518,649.13z"/>
		<path d="M334.702,606.178c-3.994,0-7.332,3.283-7.332,7.388c0,3.934,3.337,7.332,7.332,7.332c3.986,0,7.276-3.398,7.276-7.332
			C341.978,609.461,338.688,606.178,334.702,606.178z"/>
		<path d="M323.54,649.13c0-4.049-3.345-7.332-7.277-7.332c-4.049,0-7.332,3.283-7.332,7.332c0,3.994,3.283,7.331,7.332,7.331
			C320.195,656.461,323.54,653.124,323.54,649.13z"/>
		<path d="M356.751,656.461c3.987,0,7.332-3.337,7.332-7.331c0-4.049-3.345-7.332-7.332-7.332c-3.939,0-7.332,3.283-7.332,7.332
			C349.42,653.124,352.812,656.461,356.751,656.461z"/>
		<path d="M341.076,502.384c0.19-2.188,4.507-53.84-32.721-82.456c-14.035-10.751-30.811-16.223-49.791-16.223
			c-22.986,0-40.927,8.159-41.7,8.48c-2.4,1.129-3.987,3.502-4.076,6.155c-0.048,2.106-1.122,51.761,34.041,77.478
			c16.086,11.654,35.071,17.562,56.355,17.562h0.027c18.903,0,32.665-4.868,33.239-5.032
			C339.024,507.418,340.83,505.064,341.076,502.384z M296.948,460.444c-9.745,0-17.673-7.906-17.673-17.591
			c0-9.794,7.928-17.618,17.673-17.618c9.739,0,17.666,7.824,17.666,17.618C314.614,452.538,306.687,460.444,296.948,460.444z"/>
		<path d="M680.834,411.748c-0.712-0.328-18.713-8.479-41.748-8.479c-18.986,0-35.729,5.471-49.806,16.223
			c-37.191,28.616-32.869,80.268-32.663,82.456c0.231,2.681,2.022,5.04,4.608,5.964c0.588,0.164,14.39,5.033,33.308,5.033
			c21.354,0,40.271-5.909,56.37-17.618c35.072-25.661,34.074-75.314,34.033-77.395C684.883,415.25,683.296,412.87,680.834,411.748z
			 M660.314,460.444c-9.753,0-17.728-7.906-17.728-17.591c0-9.794,7.975-17.618,17.728-17.618c9.739,0,17.618,7.824,17.618,17.618
			C677.933,452.538,670.054,460.444,660.314,460.444z"/>
		<path d="M886.069,569.957c-21.791-6.751-43.225-11.244-64.058-14.062c15.785-54.764,14.376-120.708-16.866-201.488
			c52.636-95.478,29.808-268.898,28.78-276.585c-1.259-9.547-7.387-17.755-16.143-21.722c-8.821-4.049-18.998-3.201-27.028,2.106
			L618.513,171.904c-49.094-22.078-114.479-35.482-175.203-35.482c-61.39,0-123.717,12.919-173.72,35.701L84.489,57.768
			c-8.07-5.061-18.172-5.636-26.674-1.505c-8.563,4.049-14.534,12.147-15.812,21.558c-0.958,7.195-22.461,171.341,36.296,277.051
			C50.729,435.905,49.676,501.57,65.407,556.36c-19.711,2.852-39.942,7.222-60.474,13.597c-3.7,1.148-5.752,5.033-4.624,8.754
			c1.177,3.722,5.171,5.802,8.775,4.598c20.552-6.368,40.858-10.629,60.651-13.316c4.507,12.878,9.924,25.162,16.189,36.857
			c-22.563,6.292-44.976,14.808-67.21,25.593c-3.475,1.696-4.925,5.854-3.222,9.355c1.197,2.47,3.693,3.939,6.292,3.939
			c1.033,0,2.079-0.219,3.057-0.711c22.577-10.93,45.352-19.41,68.284-25.546c5.752,9.494,12.044,18.609,18.802,27.379
			c-20.053,9.418-40.284,22.364-60.022,40.078c-2.873,2.572-3.126,7.004-0.547,9.904c1.395,1.53,3.303,2.298,5.225,2.298
			c1.668,0,3.331-0.597,4.678-1.807c19.67-17.666,39.75-30.388,59.557-39.409c37.535,44.702,86.758,80.344,135.831,112.29
			c38.574,25.113,114.108,67.244,186.66,67.244c57.195,0,132.142-26.592,190.96-67.792c42.351-29.717,93.303-65.486,132.875-113.062
			c20.778,9.096,41.885,22.166,62.555,40.729c1.382,1.21,3.021,1.807,4.719,1.807c1.915,0,3.83-0.768,5.185-2.298
			c2.585-2.9,2.354-7.332-0.479-9.904c-20.737-18.596-42.021-32.008-63.046-41.516c6.523-8.568,12.611-17.535,18.261-26.852
			c24.116,6.196,48.081,14.951,71.813,26.455c0.984,0.492,2.023,0.711,3.063,0.711c2.571,0,5.089-1.471,6.278-3.939
			c1.71-3.502,0.231-7.659-3.215-9.355c-23.392-11.333-46.986-20.143-70.732-26.516c6.183-11.546,11.654-23.651,16.141-36.413
			c20.915,2.646,42.433,7.051,64.224,13.795c3.721,1.147,7.592-0.876,8.754-4.598C891.814,574.99,889.735,571.105,886.069,569.957z
			 M764.589,307.953c-17.659-18.33-35.895-31.407-41.296-22.597c-5.745,9.329,8.862,48.669,22.815,74.057
			c0.547,0.985,1.148,1.012,1.75,1.696c0.15,0.492,0,1.04,0.22,1.532c7.004,16.715,12.134,32.336,16.47,47.491
			c-19.767-13.732-56.534-28.726-56.534-9.301c0.123,22.789,52.431,89.678,66.26,112.275c-1.888,13.713-5.32,26.64-9.82,39.047
			c-100.253,0.431-176.211,35.845-186.538,43.628c-3.063,2.298-3.722,6.676-1.367,9.794c1.367,1.806,3.447,2.791,5.581,2.791
			c1.478,0,2.954-0.438,4.199-1.423c9.15-6.854,79.638-38.67,172.298-40.517c-4.541,9.979-9.903,19.58-15.99,28.868
			c-49.135-4.69-98.789,0.931-148.524,17.119c-2.353,0.767-4.158,1.367-5.484,1.751c-3.707,1.039-5.842,4.924-4.802,8.646
			c1.025,3.721,4.925,5.745,8.632,4.814c1.478-0.383,3.461-1.04,5.978-1.859c45.153-14.761,90.239-20.505,134.928-17.297
			c-4.938,6.564-10.163,13.021-15.799,19.313c-51.925-8.57-96.75,1.272-119.785,6.354l-4.542,0.984
			c-3.774,0.82-6.183,4.541-5.36,8.316c0.807,3.774,4.649,6.183,8.315,5.362l4.65-0.985c22.297-4.979,60.707-13.446,105.312-7.906
			c-28.876,29.32-64.756,56.315-104.067,83.906c-49.229,34.47-113.028,57.614-158.774,57.614
			c-42.431,0-99.308-21.176-156.081-58.162c-39.238-25.545-76.39-52.034-106.373-82.777c46.241-6.545,86.271,2.202,109.3,7.277
			l4.712,1.033c3.715,0.819,7.518-1.588,8.317-5.362c0.82-3.775-1.587-7.496-5.362-8.316l-4.649-1.04
			c-23.556-5.144-69.995-15.312-123.492-5.636c-5.554-6.319-10.738-12.856-15.621-19.581c45.851-3.769,92.14,1.807,138.511,16.9
			c2.511,0.82,4.515,1.478,5.964,1.859c3.611,0.875,7.605-1.148,8.646-4.814c1.06-3.721-1.094-7.605-4.822-8.646
			c-1.306-0.384-3.146-0.984-5.437-1.751c-50.906-16.552-101.654-22.092-151.855-16.824c-5.875-9.315-11.073-19.041-15.512-29.231
			c94.042,1.245,165.944,33.664,175.185,40.585c1.266,0.985,2.715,1.423,4.192,1.423c2.134,0,4.233-0.984,5.608-2.791
			c2.324-3.118,1.695-7.496-1.424-9.794c-10.464-7.845-87.681-43.812-189.164-43.642c-5.307-15.115-9.096-31.146-10.847-48.443
			c19.144-28.069,60.043-82.757,60.132-102.865c0-17.919-31.243-6.511-51.624,6.155c3.611-14.554,7.934-29.574,13.788-45.522
			c0.41-1.095,0.137-2.271,0.41-3.394c13.734-25.415,27.823-63.551,22.153-72.716c-5.308-8.646-22.946,3.83-40.325,21.612
			c-23.637-57.369-25.518-131.098-23.548-177.414l159.192,98.351c8.345,5.253,18.904,5.554,27.687,1.012
			c5.581-2.927,12.146-5.225,18.241-7.852c12.29,20.163,34.312,49.435,41.781,58.053c13.042,15.074,46.009-60.761,34.251-80.103
			c9.85-1.724,19.615-3.365,29.628-4.377c-14.089,34.005,12.394,115.257,30.23,98.405c16.432-15.539,55.184-70.528,58.098-97.038
			c13.911,1.806,27.81,4.11,41.2,7.195c-7.975,25.88,0.726,69.871-0.149,84.48c-0.931,15.102,55.303-25.716,77.858-57.8
			c8.029,2.626,16.784,2.346,23.965-2.414l146.474-96.709C785.504,183.23,783.971,257.15,764.589,307.953z"/>
	</g>
</g>
<g>
</g>
<g>
</g>
<g>
</g>
<g>
</g>
<g>
</g>
<g>
</g>
<g>
</g>
<g>
</g>
<g>
</g>
<g>
</g>
<g>
</g>
<g>
</g>
<g>
</g>
<g>
</g>
<g>
</g>
</svg>
