<?xml version="1.0" encoding="iso-8859-1"?>
<!-- Generator: Adobe Illustrator 16.0.0, SVG Export Plug-In . SVG Version: 6.00 Build 0)  -->
<!DOCTYPE svg PUBLIC "-//W3C//DTD SVG 1.1//EN" "http://www.w3.org/Graphics/SVG/1.1/DTD/svg11.dtd">
<svg version="1.1" id="Capa_1" xmlns="http://www.w3.org/2000/svg" xmlns:xlink="http://www.w3.org/1999/xlink" x="0px" y="0px"
	 width="612.006px" height="612.006px" viewBox="0 0 612.006 612.006" style="enable-background:new 0 0 612.006 612.006;"
	 xml:space="preserve">
<g>
	<g>
		<path d="M366.417,373.252c6.602,9.989,17.582,15.821,30.237,16.147c0.369,0.006,0.732,0.031,1.103,0.031l0,0
			c9.927,0,20.568-3.418,29.941-9.62c13.309-8.8,17.706-19.436,19.048-26.813c1.805-9.902-0.585-20.193-6.903-29.757
			c-8.449-12.778-21.104-20.107-34.721-20.107c-8,0-15.814,2.481-23.224,7.383c-10.217,6.756-17.502,17.034-20.507,28.951
			c-1.626,6.447-1.842,12.976-0.745,19.097C361.589,363.873,363.522,368.874,366.417,373.252z M397.787,334.571
			c2.611-1.73,5.081-2.604,7.329-2.604c5.352,0,9.249,5.019,10.679,7.181c1.49,2.26,3.152,5.598,2.592,8.689
			c-0.609,3.362-3.916,6.171-6.583,7.932c-4.649,3.073-9.767,4.834-14.047,4.834c-5.143,0-6.762-2.444-7.292-3.245
			C386.727,351.698,389.159,340.274,397.787,334.571z"/>
		<path d="M165.839,353.12c1.342,7.378,5.739,18.014,19.048,26.814c9.379,6.201,20.015,9.619,29.948,9.619
			c0.271,0,0.536-0.019,0.801-0.025c12.779-0.233,23.876-6.084,30.533-16.153c2.938-4.446,4.89-9.539,5.826-14.934
			c1.047-6.048,0.813-12.483-0.788-18.845c-3.005-11.91-10.291-22.194-20.507-28.95c-7.415-4.902-15.224-7.384-23.223-7.384
			c-13.623,0-26.278,7.329-34.721,20.107C166.424,332.928,164.034,343.218,165.839,353.12z M196.791,339.265
			c1.429-2.156,5.321-7.175,10.672-7.175c2.248,0,4.711,0.874,7.329,2.604c4.151,2.741,7.23,7.101,8.456,11.954
			c1.041,4.132,0.622,8.178-1.127,10.826c-0.53,0.801-2.149,3.245-7.292,3.245c-4.28,0-9.398-1.761-14.047-4.834
			c-2.667-1.762-5.974-4.569-6.583-7.932C193.638,344.862,195.3,341.524,196.791,339.265z"/>
		<path d="M558.312,353.312c-5.728-31.081-14.651-56.121-27.109-75.865c20.021-8.006,37.936-21.043,51.755-37.899
			c18.733-22.841,29.049-51.718,29.049-81.309C612,87.479,554.438,29.917,483.678,29.917c-38.113,0-75.944,30.841-102.389,83.009
			h-76.838h-73.74c-26.444-52.167-64.275-83.009-102.389-83.009C57.562,29.917,0,87.479,0,158.239
			c0,29.591,10.315,58.467,29.049,81.309c13.819,16.855,31.734,29.887,51.755,37.899c-12.458,19.744-21.382,44.784-27.109,75.865
			c-5.118,27.768-4.717,53.726,1.01,76.955c-17.995,6.903-33.822,16.492-47.191,28.648l19.393,21.326
			c10.549-9.595,23.137-17.243,37.535-22.841c2.901,5.992,6.227,11.731,9.995,17.182c7.482,10.826,16.572,20.446,27.128,28.766
			c-2.771,1.798-5.506,3.658-8.179,5.598c-21.129,15.273-39.235,34.69-53.812,57.729l24.362,15.415
			c16.93-26.765,38.761-47.401,65.125-61.633c14.213,6.879,29.905,11.903,46.828,14.958c13.173,2.384,25.945,3.591,37.96,3.591
			c1.386,0,2.765-0.019,4.132-0.05c20.846,25.243,51.829,41.446,86.458,41.976c0.579,0.006,1.158,0.024,1.743,0.024
			c35.324,0,66.997-16.325,88.194-41.993c1.244,0.024,2.494,0.043,3.75,0.043l0,0c12.015,0,24.787-1.207,37.96-3.591
			c17.194-3.109,33.12-8.239,47.512-15.291c22.848,12.243,46.712,31.537,65.963,61.966l24.362-15.415
			c-14.577-23.038-32.683-42.462-53.812-57.729c-2.95-2.131-5.955-4.175-9.022-6.14c10.267-8.196,19.128-17.631,26.444-28.224
			c3.88-5.61,7.285-11.517,10.241-17.693c13.894,5.247,27.177,12.772,38.816,23.353l19.393-21.326
			c-13.715-12.471-30.016-22.244-48.583-29.185C563.035,406.637,563.386,380.864,558.312,353.312z M306.194,552.128
			c-0.579,0-1.164-0.006-1.743-0.019c-18.931-0.388-36.39-7.069-50.493-18.099c6.614-1.749,12.976-3.948,19.048-6.614
			c11.473-5.031,21.998-11.695,31.445-19.898c0.517-0.449,1.035-0.905,1.552-1.36c9.841,8.831,20.89,15.95,32.997,21.259
			c6.164,2.703,12.624,4.927,19.337,6.688C343.815,545.403,325.753,552.128,306.194,552.128z M531.029,415.572
			c-0.381,2.119-0.812,4.206-1.299,6.27c-15.846-3.245-32.917-4.804-50.936-4.612c-28.52,0.302-52.224,4.853-63.314,7.39
			c-4.021,0.924-6.387,1.576-6.719,1.675l7.814,27.75c0.13-0.037,1.774-0.486,4.668-1.158c13.722-3.178,55.58-11.282,98.134-3.701
			c-1.693,3.104-3.541,6.109-5.536,9.004c-8.067,11.67-18.512,21.548-31.014,29.462c-6.091-2.673-12.329-5.062-18.715-7.162
			c-16.732-5.5-31.667-8.099-42.752-9.312c-11.817-1.287-19.264-1.004-19.849-0.979L402.775,499c0.21-0.013,5.093-0.166,13.13,0.598
			c6.996,0.665,16.381,2.025,27.195,4.803c-3.941,1.011-7.981,1.897-12.132,2.648c-6.405,1.158-12.674,1.983-18.752,2.5
			c-4.822,0.407-9.527,0.629-14.078,0.629c-6.177,0-12.126-0.382-17.854-1.127c-18.771-2.445-35.103-8.899-48.842-19.276
			c4.409-2.567,9.034-5.715,13.708-9.49c17.127-13.831,26.733-30.342,27.178-46.618h-28.864
			c-0.555,7.076-6.029,15.457-15.224,23.198c-6.83,5.752-13.758,9.558-18.254,11.491c-1.73,0.745-3.098,1.214-3.959,1.411
			c-0.413-0.074-0.949-0.21-1.577-0.4c-0.721-0.222-1.57-0.518-2.531-0.899c-4.576-1.823-11.608-5.506-18.537-11.27
			c-4.496-3.745-14.811-13.463-14.546-23.525h-28.833c-0.117,13.167,5.739,26.364,17.028,38.286
			c6.559,6.929,14.916,13.241,23.303,17.989c-13.604,10.217-29.739,16.597-48.257,19.066c-5.838,0.775-11.911,1.17-18.217,1.17
			c-4.428,0-9.003-0.21-13.678-0.592c-6.208-0.511-12.606-1.354-19.152-2.537c-3.892-0.702-7.692-1.533-11.399-2.463
			c10.549-2.734,19.824-4.145,26.887-4.865c8.794-0.893,14.158-0.721,14.275-0.721l0.585-14.392l0.634-14.411
			c-0.598-0.024-8.505-0.332-20.976,1.103c-10.962,1.263-25.458,3.867-41.625,9.183c-6.7,2.204-13.24,4.729-19.608,7.562
			c-12.779-7.975-23.433-17.994-31.642-29.861c-1.94-2.809-3.732-5.728-5.389-8.732c12.742-2.371,26.462-3.522,40.953-3.412
			c25.717,0.197,47.481,4.342,57.439,6.583c3.658,0.825,5.727,1.393,5.801,1.417l7.803-27.75c-0.363-0.104-3.116-0.868-7.778-1.915
			c-11.491-2.574-34.61-6.866-62.255-7.156c-18.561-0.196-36.131,1.454-52.383,4.908c-0.511-2.161-0.973-4.348-1.367-6.564
			c-3.085-17.256-2.722-36.445,1.071-57.039c6.479-35.188,17.687-61.842,33.305-79.227l4.416-4.915
			c5.838-3.627,13.77-8.775,21.764-14.688c24.116-17.835,35.349-32.535,35.349-46.274c0-16.233-7.119-53.738-34.062-79.486
			c-19.996-19.103-46.342-28.051-78.31-26.604l1.306,28.796c23.802-1.078,43.004,5.192,57.088,18.648
			c20.409,19.503,25.052,48.38,25.151,58.326c-0.333,1.028-3.436,8.72-25.182,24.529c-9.798,7.125-19.466,13.025-23.938,15.673
			c-18.512-5.733-35.176-16.898-47.592-32.036c-14.515-17.706-22.509-40.085-22.509-63.031c0-54.859,44.636-99.495,99.495-99.495
			c28.821,0,54.883,28.292,72.293,59.083c-6.497,3.091-13.906,7.932-21.517,15.543l20.384,20.384
			c8.333-8.333,15.421-11.091,19.171-12.009h85.798h88.619c3.75,0.917,10.839,3.676,19.171,12.009l20.384-20.384
			c-7.531-7.532-14.866-12.354-21.313-15.445c17.409-30.835,43.496-59.182,72.348-59.182c54.859,0,99.495,44.636,99.495,99.495
			c0,22.946-7.994,45.325-22.509,63.031c-12.612,15.383-29.609,26.66-48.485,32.313c-4.236-2.494-14.244-8.56-24.399-15.944
			c-21.745-15.808-24.849-23.494-25.182-24.528c0.099-9.94,4.742-38.823,25.151-58.326c14.084-13.456,33.286-19.725,57.088-18.647
			l1.312-28.796c-31.968-1.447-58.313,7.495-78.31,26.604c-26.943,25.748-34.062,63.252-34.062,79.486
			c0,13.733,11.232,28.439,35.349,46.274c9.478,7.008,18.863,12.951,24.781,16.542l2.753,3.061
			c15.617,17.385,26.826,44.038,33.305,79.228C533.752,379.127,534.115,398.316,531.029,415.572z"/>
	</g>
</g>
<g>
</g>
<g>
</g>
<g>
</g>
<g>
</g>
<g>
</g>
<g>
</g>
<g>
</g>
<g>
</g>
<g>
</g>
<g>
</g>
<g>
</g>
<g>
</g>
<g>
</g>
<g>
</g>
<g>
</g>
</svg>
